<svg width="1200" height="750" viewBox="0 0 1200 750" xmlns="http://www.w3.org/2000/svg" role="img" aria-labelledby="title desc">
  <title id="title">AI 辅助开发到可收费交付路线</title>
  <desc id="desc">一张书房风格的路线封面，表现从想法、页面、验收到交付的路径。</desc>
  <defs>
    <linearGradient id="bg" x1="0" y1="0" x2="1" y2="1">
      <stop offset="0" stop-color="#FBFAF7"/>
      <stop offset="0.48" stop-color="#F5EDE8"/>
      <stop offset="1" stop-color="#E8DDD4"/>
    </linearGradient>
    <linearGradient id="ink" x1="0" y1="0" x2="1" y2="1">
      <stop offset="0" stop-color="#3D342E"/>
      <stop offset="1" stop-color="#6B4F3E"/>
    </linearGradient>
    <filter id="shadow" x="-20%" y="-20%" width="140%" height="140%">
      <feDropShadow dx="0" dy="18" stdDeviation="22" flood-color="#43342B" flood-opacity="0.16"/>
    </filter>
  </defs>
  <rect width="1200" height="750" fill="url(#bg)"/>
  <path d="M80 110H1120M80 210H1120M80 310H1120M80 410H1120M80 510H1120M80 610H1120" stroke="#D8C6B8" stroke-width="1" opacity="0.36"/>
  <path d="M165 70V680M350 70V680M535 70V680M720 70V680M905 70V680" stroke="#D8C6B8" stroke-width="1" opacity="0.26"/>
  <g filter="url(#shadow)">
    <rect x="130" y="145" width="940" height="460" rx="28" fill="#FFFFFF" opacity="0.86"/>
    <rect x="154" y="169" width="892" height="412" rx="22" fill="#FBFAF7" stroke="#E8DDD4" stroke-width="2"/>
  </g>
  <g transform="translate(218 238)">
    <circle cx="54" cy="54" r="54" fill="#F5EDE8" stroke="#D8C6B8" stroke-width="2"/>
    <path d="M34 61C46 37 66 37 78 61" fill="none" stroke="#C8956C" stroke-width="7" stroke-linecap="round"/>
    <circle cx="42" cy="46" r="5" fill="#3D342E"/>
    <circle cx="66" cy="46" r="5" fill="#3D342E"/>
    <text x="54" y="135" text-anchor="middle" font-family="'Noto Serif SC','Songti SC',serif" font-size="28" fill="#3D342E">想法</text>
  </g>
  <g transform="translate(430 245)">
    <rect x="0" y="0" width="142" height="104" rx="18" fill="#EAF1EC" stroke="#C7D7CC" stroke-width="2"/>
    <rect x="18" y="20" width="106" height="13" rx="6.5" fill="#6B9E7C" opacity="0.78"/>
    <rect x="18" y="46" width="72" height="10" rx="5" fill="#8AAE9B" opacity="0.66"/>
    <rect x="18" y="68" width="96" height="10" rx="5" fill="#8AAE9B" opacity="0.46"/>
    <text x="71" y="155" text-anchor="middle" font-family="'Noto Serif SC','Songti SC',serif" font-size="28" fill="#3D342E">页面</text>
  </g>
  <g transform="translate(650 245)">
    <rect x="0" y="0" width="142" height="104" rx="18" fill="#F8EFEA" stroke="#E1C9BB" stroke-width="2"/>
    <path d="M33 55L56 77L109 29" fill="none" stroke="#C47D6E" stroke-width="10" stroke-linecap="round" stroke-linejoin="round"/>
    <text x="71" y="155" text-anchor="middle" font-family="'Noto Serif SC','Songti SC',serif" font-size="28" fill="#3D342E">验收</text>
  </g>
  <g transform="translate(855 238)">
    <rect x="0" y="0" width="132" height="112" rx="20" fill="#F2F2F0" stroke="#D9D7D0" stroke-width="2"/>
    <path d="M30 35H102M30 58H88M30 81H98" stroke="#8A8A88" stroke-width="8" stroke-linecap="round"/>
    <circle cx="104" cy="88" r="23" fill="#C8956C"/>
    <path d="M94 88L101 95L115 80" fill="none" stroke="#FFFDFB" stroke-width="5" stroke-linecap="round" stroke-linejoin="round"/>
    <text x="66" y="155" text-anchor="middle" font-family="'Noto Serif SC','Songti SC',serif" font-size="28" fill="#3D342E">交付</text>
  </g>
  <path d="M342 292C376 292 388 292 418 292" fill="none" stroke="#C8956C" stroke-width="5" stroke-linecap="round"/>
  <path d="M578 292C610 292 620 292 642 292" fill="none" stroke="#C8956C" stroke-width="5" stroke-linecap="round"/>
  <path d="M798 292C824 292 832 292 848 292" fill="none" stroke="#C8956C" stroke-width="5" stroke-linecap="round"/>
  <g transform="translate(220 462)">
    <text x="0" y="0" font-family="'Noto Serif SC','Songti SC',serif" font-size="44" fill="url(#ink)">从 AI 做事到可验收交付</text>
    <text x="0" y="50" font-family="'Microsoft YaHei','Noto Sans SC',sans-serif" font-size="22" fill="#8A8A88">先解决一个小问题，再让作品承担信任。</text>
  </g>
</svg>
