<svg xmlns="http://www.w3.org/2000/svg" viewBox="0 0 640 420" role="img" aria-label="小安学习闭环项目">
  <rect width="640" height="420" fill="#F4ECEA"/>
  <path d="M178 226c38-68 96-102 142-102s104 34 142 102c-34 52-88 80-142 80s-108-28-142-80z" fill="#FFFDF9" stroke="#C47D6E" stroke-width="4"/>
  <path d="M232 226c48-34 128-34 176 0M262 258c34 20 82 20 116 0" fill="none" stroke="#3C3530" stroke-width="8" stroke-linecap="round"/>
  <path d="M140 116c-34 58-34 148 0 206M500 116c34 58 34 148 0 206" fill="none" stroke="#C8956C" stroke-width="8" stroke-linecap="round"/>
  <text x="92" y="54" fill="#3C3530" font-family="serif" font-size="30">小安学习闭环</text>
  <text x="96" y="384" fill="#7A716B" font-family="sans-serif" font-size="20">资料、实验、评估、复盘，再回到下一步</text>
</svg>
