<svg xmlns="http://www.w3.org/2000/svg" viewBox="0 0 640 420" role="img" aria-label="个人资料库平台">
  <rect width="640" height="420" fill="#F6F1EA"/>
  <path d="M96 118h448v210H96z" fill="#FFFDF9" stroke="#D8C6B8" stroke-width="4"/>
  <path d="M138 156h118v132H138zM286 156h82v132h-82zM398 156h104v132H398z" fill="#F3E4D8"/>
  <path d="M166 188h62M166 224h42M166 260h76M314 188h26M314 224h26M314 260h26M426 188h50M426 224h34M426 260h58" stroke="#7A716B" stroke-width="8" stroke-linecap="round"/>
  <path d="M104 118l56-42h320l56 42" fill="none" stroke="#C8956C" stroke-width="8" stroke-linecap="round" stroke-linejoin="round"/>
  <text x="92" y="54" fill="#3C3530" font-family="serif" font-size="30">个人资料库平台</text>
  <text x="96" y="384" fill="#7A716B" font-family="sans-serif" font-size="20">把经历整理成别人能读的书房</text>
</svg>
